# xmcd
#
# Track frame offsets:
#	150
#	17554
#	59059
#	83950
#	107368
#	126449
#	154159
#	171516
#	189234
#	203111
#	220424
#	238845
#
# Disc length: 3401 seconds
#
# Revision: 1
# Processed by: cddbd v1.4PL0 Copyright (c) Steve Scherf et al.
# Submitted via: EasyCDDAExtractor 5.1.0
#
DISCID=ab0d470c
DTITLE=Greg Koch - 13 x 12 [CD2]
DYEAR=2003
DGENRE=Blues
TTITLE0=The Damn Thing
TTITLE1=Foolish Mortals
TTITLE2=2.65
TTITLE3=Miramani
TTITLE4=Shakedown
TTITLE5=Sure Betts
TTITLE6=Blackhawk Suite
TTITLE7=Ziggie's Reprise
TTITLE8=Nash Vegas
TTITLE9=Goon
TTITLE10=Issue Train
TTITLE11=Stoydle
EXTD=
EXTT0=
EXTT1=
EXTT2=
EXTT3=
EXTT4=
EXTT5=
EXTT6=
EXTT7=
EXTT8=
EXTT9=
EXTT10=
EXTT11=
PLAYORDER=
